<?xml version="1.0" encoding="utf-8"?>
<svg xmlns="http://www.w3.org/2000/svg" x="0px" y="0px"
     width="65" height="65 "
     viewBox="0 0 252 252"
     style=";fill:#2ecc71;"
     class="icon icons8-google-plus"><g transform="translate(12.978,12.978) scale(0.897,0.897)"><g fill="none" fill-rule="nonzero" stroke="none" stroke-width="none" stroke-linecap="butt" stroke-linejoin="none" stroke-miterlimit="10" stroke-dasharray="" stroke-dashoffset="0" font-family="none" font-weight="none" font-size="none" text-anchor="none" style="mix-blend-mode: normal"><g fill="#00000000" stroke="#ffffff" stroke-width="5.5" stroke-linejoin="round"><g id="surface1 1"><path d="M134.42625,73.71l-16.93125,16.57688c-8.28844,-7.16625 -19.0575,-11.53688 -30.87,-11.53688c-26.10562,0 -47.25,21.14438 -47.25,47.25c0,26.10563 21.14438,47.25 47.25,47.25c23.40844,0 43.48969,-17.02969 47.25,-39.375h-47.25v-23.625h69.02438l0.39375,1.575c0.92531,4.5675 1.45687,9.31219 1.45687,14.175c0,39.13875 -31.73625,70.875 -70.875,70.875c-39.13875,0 -70.875,-31.73625 -70.875,-70.875c0,-39.13875 31.73625,-70.875 70.875,-70.875c18.4275,0 35.20125,7.04813 47.80125,18.585zM212.625,86.625v23.625h23.625v15.75h-23.625v23.625h-15.75v-23.625h-23.625v-15.75h23.625v-23.625z"></path></g></g><path d="M0,252v-252h252v252z" fill="none" stroke="none" stroke-width="1" stroke-linejoin="miter"></path><g  fill="#00000000" stroke="none" stroke-width="1" stroke-linejoin="miter"><g id="surface1"><path d="M86.625,55.125c-39.13875,0 -70.875,31.73625 -70.875,70.875c0,39.13875 31.73625,70.875 70.875,70.875c39.13875,0 70.875,-31.73625 70.875,-70.875c0,-4.86281 -0.53156,-9.6075 -1.45687,-14.175l-0.39375,-1.575h-69.02438v23.625h47.25c-3.76031,22.34531 -23.84156,39.375 -47.25,39.375c-26.10562,0 -47.25,-21.14437 -47.25,-47.25c0,-26.10562 21.14438,-47.25 47.25,-47.25c11.8125,0 22.58156,4.37063 30.87,11.53688l16.93125,-16.57688c-12.6,-11.53687 -29.37375,-18.585 -47.80125,-18.585zM196.875,86.625v23.625h-23.625v15.75h23.625v23.625h15.75v-23.625h23.625v-15.75h-23.625v-23.625z"></path></g></g><path d="" fill="none" stroke="none" stroke-width="1" stroke-linejoin="miter"></path><path d="" fill="none" stroke="none" stroke-width="1" stroke-linejoin="miter"></path><path d="" fill="none" stroke="none" stroke-width="1" stroke-linejoin="miter"></path><path d="" fill="none" stroke="none" stroke-width="1" stroke-linejoin="miter"></path></g></g></svg>